<svg width="430" height="430" viewBox="0 0 430 430" fill="none" xmlns="http://www.w3.org/2000/svg">
<path d="M215 381C158.4 381 112.6 306.7 112.6 214.9C112.6 123.1 158.4 48.9001 215 48.9001" stroke="#08A88A" stroke-width="12" stroke-miterlimit="13.284" stroke-linecap="round" stroke-linejoin="round"/>
<path d="M215 381C215.3 351.9 215.6 306.7 215.6 214.9C215.6 123.1 215.3 101.2 215 48.8" stroke="#08A88A" stroke-width="12" stroke-miterlimit="13.284" stroke-linecap="round" stroke-linejoin="round"/>
<path d="M215 381C273.4 381 320.7 306.7 320.7 214.9C320.7 123.1 273.4 48.9001 215 48.9001" stroke="#08A88A" stroke-width="12" stroke-miterlimit="13.284" stroke-linecap="round" stroke-linejoin="round"/>
<path d="M48.9004 215H381" stroke="#08A88A" stroke-width="12" stroke-miterlimit="13.284" stroke-linecap="round" stroke-linejoin="round"/>
<path d="M322.401 88.3C293.501 103.4 256.001 112.6 215.101 112.6C174.201 112.6 136.701 103.5 107.701 88.3" stroke="#08A88A" stroke-width="12" stroke-miterlimit="13.284" stroke-linecap="round" stroke-linejoin="round"/>
<path d="M107.701 341.7C136.601 326.6 174.101 317.4 215.001 317.4C255.901 317.4 293.401 326.5 322.401 341.7" stroke="#08A88A" stroke-width="12" stroke-miterlimit="13.284" stroke-linecap="round" stroke-linejoin="round"/>
<path d="M381.1 215C381.1 306.7 306.8 381.1 215 381.1C123.2 381.1 49 306.7 49 215C49 123.3 123.3 49.0001 215 49.0001C306.7 49.0001 381.1 123.3 381.1 215Z" stroke="#121331" stroke-width="12" stroke-miterlimit="13.284" stroke-linecap="round" stroke-linejoin="round"/>
</svg>
